<svg width="24" height="20" viewBox="0 0 24 20" fill="none" xmlns="http://www.w3.org/2000/svg">
<path d="M3.49993 6.00007C3.50013 5.05199 3.7454 4.12005 4.21195 3.29471C4.67849 2.46936 5.35047 1.77862 6.16267 1.28954C6.97486 0.800454 7.89969 0.529626 8.84741 0.503336C9.79514 0.477046 10.7336 0.696187 11.5716 1.13949C12.4097 1.5828 13.1189 2.23522 13.6305 3.03343C14.1421 3.83165 14.4386 4.74855 14.4914 5.69517C14.5442 6.64178 14.3513 7.58597 13.9316 8.43608C13.5119 9.2862 12.8795 10.0134 12.0959 10.5471C13.7834 11.166 15.2471 12.2758 16.2986 13.7336C17.35 15.1914 17.9412 16.9305 17.9959 18.7271C17.9936 18.9208 17.9165 19.1061 17.7808 19.2443C17.645 19.3825 17.4611 19.4629 17.2675 19.4687C17.0739 19.4745 16.8855 19.4053 16.7417 19.2755C16.5979 19.1456 16.5099 18.9653 16.4959 18.7721C16.4364 16.8235 15.6205 14.9747 14.2211 13.6175C12.8217 12.2602 10.9489 11.5012 8.99943 11.5012C7.04997 11.5012 5.17712 12.2602 3.77776 13.6175C2.37839 14.9747 1.56248 16.8235 1.50293 18.7721C1.49292 18.9679 1.40661 19.152 1.26249 19.285C1.11837 19.418 0.927906 19.4892 0.731901 19.4835C0.535896 19.4777 0.34994 19.3954 0.213869 19.2542C0.0777983 19.113 0.00243635 18.9242 0.00392798 18.7281C0.0584793 16.9313 0.649535 15.192 1.70101 13.734C2.75249 12.276 4.21627 11.1661 5.90393 10.5471C5.16276 10.0427 4.55622 9.3647 4.1372 8.57215C3.71818 7.7796 3.4994 6.89658 3.49993 6.00007ZM8.99993 2.00007C7.93906 2.00007 6.92165 2.4215 6.1715 3.17165C5.42136 3.92179 4.99993 4.93921 4.99993 6.00007C4.99993 7.06094 5.42136 8.07836 6.1715 8.8285C6.92165 9.57865 7.93906 10.0001 8.99993 10.0001C10.0608 10.0001 11.0782 9.57865 11.8284 8.8285C12.5785 8.07836 12.9999 7.06094 12.9999 6.00007C12.9999 4.93921 12.5785 3.92179 11.8284 3.17165C11.0782 2.4215 10.0608 2.00007 8.99993 2.00007ZM17.2899 6.00007C17.1419 6.00007 16.9979 6.01007 16.8559 6.03007C16.7568 6.04783 16.6551 6.04543 16.5569 6.02302C16.4587 6.00062 16.366 5.95866 16.2844 5.89966C16.2028 5.84066 16.1339 5.76582 16.0818 5.67961C16.0297 5.5934 15.9955 5.49759 15.9813 5.39788C15.967 5.29818 15.973 5.19662 15.9989 5.09928C16.0247 5.00194 16.0699 4.9108 16.1318 4.8313C16.1936 4.7518 16.2708 4.68558 16.3588 4.63658C16.4468 4.58757 16.5438 4.55679 16.6439 4.54607C17.6385 4.40228 18.6527 4.59327 19.5268 5.089C20.4009 5.58472 21.0854 6.35704 21.4725 7.2844C21.8596 8.21176 21.9274 9.24152 21.6652 10.2116C21.4029 11.1817 20.8256 12.0371 20.0239 12.6431C21.2023 13.1707 22.2028 14.0281 22.9048 15.1117C23.6068 16.1953 23.9802 17.459 23.9799 18.7501C23.9799 18.949 23.9009 19.1398 23.7603 19.2804C23.6196 19.4211 23.4288 19.5001 23.2299 19.5001C23.031 19.5001 22.8403 19.4211 22.6996 19.2804C22.5589 19.1398 22.4799 18.949 22.4799 18.7501C22.4798 17.6342 22.1203 16.5481 21.4546 15.6526C20.7889 14.757 19.8524 14.0997 18.7839 13.7781L18.2499 13.6181V11.9421L18.6599 11.7331C19.2677 11.4252 19.754 10.9215 20.0402 10.3033C20.3265 9.68511 20.3961 8.98845 20.2378 8.32583C20.0794 7.66321 19.7024 7.07329 19.1675 6.6513C18.6327 6.22931 17.9712 5.99989 17.2899 6.00007Z" fill="#CCCCCC"/>
</svg>
