<svg width="5" height="5" viewBox="0 0 5 5" fill="none" xmlns="http://www.w3.org/2000/svg">
<path d="M3.78862 0.266515C3.82711 0.288737 3.8597 0.315633 3.88637 0.347202C3.91305 0.37877 3.93255 0.417226 3.94486 0.462567L4.75012 3.46782C4.77452 3.55889 4.76383 3.64407 4.71805 3.72336C4.67227 3.80265 4.6038 3.85459 4.51262 3.87919C4.42155 3.90359 4.33752 3.89357 4.26054 3.84912C4.18356 3.80468 4.13287 3.73692 4.10847 3.64585L3.51063 1.41468L1.64396 4.64784C1.59674 4.72963 1.53014 4.78099 1.44416 4.80191C1.35818 4.82284 1.27439 4.80974 1.19279 4.76263C1.111 4.71541 1.05833 4.64818 1.0348 4.56095C1.01126 4.47371 1.02325 4.38916 1.07078 4.30729L2.93328 1.08134L0.702104 1.67919C0.611036 1.70359 0.527012 1.69357 0.450032 1.64912C0.373051 1.60468 0.322361 1.53692 0.297959 1.44585C0.273558 1.35478 0.284301 1.26951 0.33019 1.19003C0.376078 1.11054 0.444502 1.0587 0.535459 1.03449L3.54072 0.229234C3.58625 0.217033 3.62936 0.214593 3.67003 0.221913C3.71071 0.229233 3.75024 0.2441 3.78862 0.266515Z" fill="#5B61F1"/>
</svg>
