<svg width="101" height="33" viewBox="0 0 101 33" fill="white" xmlns="http://www.w3.org/2000/svg">
<path d="M8.41333 25.16C6.6 24.9467 5.32 24.84 4.57333 24.84C3.86222 24.84 2.6 24.9467 0.786667 25.16C0.715556 25.0889 0.68 24.9111 0.68 24.6267C0.644444 24.3067 0.662222 24.0578 0.733333 23.88C1.23111 23.88 1.72889 23.7378 2.22667 23.4533C2.76 23.1333 3.08 22.9022 3.18667 22.76C3.64889 21.9422 4.05778 21.1244 4.41333 20.3067L11.9333 3.02667C12.04 2.81333 12.2356 2.54667 12.52 2.22667C12.8044 1.87111 13.0889 1.69333 13.3733 1.69333C13.6578 1.69333 13.8533 1.78222 13.96 1.96L21.16 19.7733C21.4089 20.3422 21.5867 20.8222 21.6933 21.2133C21.8356 21.5689 21.9778 21.9422 22.12 22.3333C22.2978 22.6889 22.5289 22.9733 22.8133 23.1867C23.0978 23.3644 23.3822 23.5067 23.6667 23.6133C24.0578 23.7556 24.4844 23.8267 24.9467 23.8267C25.0178 24.0044 25.0533 24.2533 25.0533 24.5733C25.0889 24.8933 25.0711 25.0889 25 25.16C22.8667 24.9467 21.1422 24.84 19.8267 24.84C18.5111 24.84 16.8933 24.9467 14.9733 25.16C14.9022 25.0533 14.8667 24.8044 14.8667 24.4133C14.8667 24.0222 14.9022 23.8267 14.9733 23.8267C15.8622 23.8267 16.5556 23.6133 17.0533 23.1867C17.2667 23.0444 17.3733 22.9022 17.3733 22.76C17.3733 22.4044 17.0178 21.4267 16.3067 19.8267L15.24 17.2667C15.1333 17.16 15.08 17.1067 15.08 17.1067H7.98667C7.91556 17.1067 7.82667 17.16 7.72 17.2667C7.54222 17.6222 7.34667 18.0844 7.13333 18.6533C6.92 19.1867 6.70667 19.7022 6.49333 20.2C5.96 21.3733 5.69333 22.1378 5.69333 22.4933C5.69333 22.8133 5.81778 23.0622 6.06667 23.24C6.31556 23.3822 6.6 23.5067 6.92 23.6133C7.48889 23.7556 7.98667 23.8267 8.41333 23.8267C8.52 23.9689 8.55556 24.2178 8.52 24.5733C8.52 24.8933 8.48444 25.0889 8.41333 25.16ZM8.52 15.24C8.52 15.3467 9.14222 15.4 10.3867 15.4H12.8933C13.2844 15.4 13.7644 15.3822 14.3333 15.3467L14.3867 15.24V15.1333L11.5067 8.25333L8.52 15.1333V15.24ZM34.6452 11.1867C36.9563 11.0089 39.2319 10.3867 41.4719 9.32C41.6141 9.35556 41.7563 9.44444 41.8985 9.58667C42.0408 9.72889 42.1119 9.83556 42.1119 9.90667C42.0408 10.0844 41.9519 10.5644 41.8452 11.3467C41.7385 12.0933 41.6852 12.7156 41.6852 13.2133V21.2133C41.6852 21.4978 41.6852 21.7467 41.6852 21.96C41.7208 22.1733 41.8274 22.3689 42.0052 22.5467C42.2185 22.76 42.7519 22.8667 43.6052 22.8667C43.6763 23.0089 43.7119 23.2044 43.7119 23.4533C43.7119 23.6667 43.6408 23.8622 43.4985 24.04C42.7874 24.0756 41.6319 24.2889 40.0319 24.68C38.4319 25.0711 37.5785 25.2667 37.4719 25.2667C37.2585 25.2667 37.1519 24.9822 37.1519 24.4133V23.8267C37.1519 23.6844 37.1163 23.6311 37.0452 23.6667C35.4452 24.6622 33.7919 25.16 32.0852 25.16C29.7741 25.16 28.3341 23.8622 27.7652 21.2667C27.623 20.4844 27.5519 19.6844 27.5519 18.8667V15.2933C27.5519 15.0089 27.5163 14.5822 27.4452 14.0133C27.3741 13.4444 27.303 13.0889 27.2319 12.9467C27.0541 12.5911 26.4497 12.3778 25.4185 12.3067C25.2052 12.2711 25.063 12.2533 24.9919 12.2533C24.9563 12.2178 24.9385 12.04 24.9385 11.72C24.9385 11.3644 24.9741 11.1867 25.0452 11.1867C26.3963 11.08 27.7119 10.8311 28.9919 10.44C30.2719 10.0133 31.2497 9.64 31.9252 9.32C32.0674 9.35556 32.1919 9.44444 32.2985 9.58667C32.4408 9.72889 32.5119 9.83556 32.5119 9.90667C32.4408 10.0489 32.3697 10.3511 32.2985 10.8133C32.2274 11.2756 32.1741 11.6667 32.1385 11.9867C32.1385 12.3067 32.1385 12.7156 32.1385 13.2133V17.2667C32.1385 19.1511 32.3163 20.5911 32.6719 21.5867C33.0274 22.5467 33.7563 23.0267 34.8585 23.0267C35.3563 23.0267 35.8541 22.8844 36.3519 22.6C36.8852 22.3156 37.1519 22.0311 37.1519 21.7467V15.2933C37.1519 15.0089 37.1163 14.5822 37.0452 14.0133C36.9741 13.4444 36.903 13.0889 36.8319 12.9467C36.6185 12.4844 35.8719 12.2533 34.5919 12.2533C34.5208 12.2178 34.4852 12.04 34.4852 11.72C34.4852 11.3644 34.5385 11.1867 34.6452 11.1867ZM58.5265 12.0933C57.5665 12.0222 56.962 11.9689 56.7131 11.9333C56.4642 11.8978 56.3398 11.9156 56.3398 11.9867C56.8376 12.7333 57.0865 13.5156 57.0865 14.3333C57.0865 15.1511 56.9265 15.88 56.6065 16.52C56.2865 17.16 55.8242 17.7111 55.2198 18.1733C53.9398 19.24 52.4287 19.7733 50.6865 19.7733C50.0109 19.7733 49.4065 19.72 48.8731 19.6133C48.6953 19.7911 48.4998 19.9689 48.2865 20.1467C48.1087 20.3244 48.0198 20.5378 48.0198 20.7867C48.0198 21 48.1976 21.1956 48.5531 21.3733C48.9087 21.5156 49.3531 21.5867 49.8865 21.5867C50.4553 21.5867 51.1842 21.5867 52.0731 21.5867C52.9976 21.5511 53.8153 21.5689 54.5265 21.64C55.2376 21.6756 55.8776 21.8533 56.4465 22.1733C57.0509 22.4578 57.5487 22.7956 57.9398 23.1867C58.6865 23.9333 59.0598 24.7689 59.0598 25.6933C59.0598 26.6178 58.7931 27.5244 58.2598 28.4133C57.7265 29.3022 57.0153 30.0489 56.1265 30.6533C54.2065 32.0044 52.0376 32.68 49.6198 32.68C47.8776 32.68 46.4553 32.3067 45.3531 31.56C44.2865 30.8133 43.7531 29.8356 43.7531 28.6267C43.7531 27.9156 44.0731 27.24 44.7131 26.6C45.3887 25.9956 46.0642 25.5333 46.7398 25.2133C46.1353 25.0356 45.6198 24.6089 45.1931 23.9333C44.802 23.2222 44.6065 22.4933 44.6065 21.7467C44.6065 21.1778 45.5842 20.3244 47.5398 19.1867C46.5087 18.7956 45.6909 18.2089 45.0865 17.4267C44.5176 16.6089 44.2331 15.7556 44.2331 14.8667C44.2331 13.9778 44.3931 13.2311 44.7131 12.6267C45.0687 11.9867 45.5309 11.4178 46.0998 10.92C47.3087 9.92444 48.8198 9.42667 50.6331 9.42667C52.2331 9.42667 53.4776 9.71111 54.3665 10.28C54.4376 10.3511 54.5087 10.3867 54.5798 10.3867L59.0065 9.96C59.2553 10.1022 59.3798 10.2444 59.3798 10.3867C59.3798 10.4933 59.2731 10.7778 59.0598 11.24C58.882 11.7022 58.7042 11.9867 58.5265 12.0933ZM48.1798 25.48C47.7887 25.9778 47.5931 26.4933 47.5931 27.0267C47.5931 28.2 47.9842 29.1067 48.7665 29.7467C49.5487 30.3867 50.4553 30.7067 51.4865 30.7067C52.5531 30.7067 53.3531 30.6 53.8865 30.3867C54.4198 30.2089 54.8465 29.9778 55.1665 29.6933C55.6998 29.2311 55.9665 28.6089 55.9665 27.8267C55.9665 27.0444 55.5931 26.4578 54.8465 26.0667C54.0998 25.6756 53.1576 25.48 52.0198 25.48H48.1798ZM50.4731 10.7067C49.3353 10.7067 48.6953 11.4533 48.5531 12.9467C48.5176 13.3733 48.4998 13.8178 48.4998 14.28C48.4998 14.7067 48.5353 15.1867 48.6065 15.72C48.7131 16.2178 48.8553 16.68 49.0331 17.1067C49.4953 18.0311 50.1531 18.4933 51.0065 18.4933C52.1442 18.4933 52.7309 17.7111 52.7665 16.1467C52.802 15.7556 52.8198 15.3467 52.8198 14.92C52.8198 14.4933 52.7842 14.0311 52.7131 13.5333C52.642 13 52.5176 12.52 52.3398 12.0933C51.9131 11.1689 51.2909 10.7067 50.4731 10.7067ZM68.23 9.90667C68.1589 10.0844 68.0344 10.7422 67.8567 11.88V19.88C67.8567 21.6578 67.91 22.6889 68.0167 22.9733C68.1233 23.2222 68.2656 23.4 68.4433 23.5067C68.6211 23.5778 68.8167 23.6489 69.03 23.72C69.3856 23.7911 69.7589 23.8267 70.15 23.8267C70.2211 23.9689 70.2567 24.2 70.2567 24.52C70.2567 24.84 70.2211 25.0533 70.15 25.16C68.3722 24.9822 66.8433 24.8933 65.5633 24.8933C64.1056 24.8933 62.4878 24.9822 60.71 25.16C60.6389 25.0533 60.6033 24.84 60.6033 24.52C60.6033 24.2 60.6389 23.9689 60.71 23.8267C61.4567 23.8267 62.0078 23.7556 62.3633 23.6133C62.7189 23.4356 62.9322 23.2933 63.0033 23.1867C63.1811 22.76 63.27 21.6578 63.27 19.88V15.2933C63.27 15.0089 63.2344 14.5822 63.1633 14.0133C63.0922 13.4444 63.0211 13.0889 62.95 12.9467C62.7011 12.4844 61.9544 12.2533 60.71 12.2533C60.6389 12.2178 60.6033 12.04 60.6033 11.72C60.6389 11.3644 60.6922 11.1867 60.7633 11.1867C62.1144 11.08 63.43 10.8311 64.71 10.44C65.99 10.0133 66.9678 9.64 67.6433 9.32C67.75 9.35556 67.8744 9.44444 68.0167 9.58667C68.1589 9.72889 68.23 9.83556 68.23 9.90667ZM62.6833 3.29333C62.6833 2.58222 62.9144 1.99556 63.3767 1.53333C63.8744 1.03556 64.4789 0.786667 65.19 0.786667C65.9011 0.786667 66.5056 1.03556 67.0033 1.53333C67.5011 1.99556 67.75 2.58222 67.75 3.29333C67.75 4.00445 67.5011 4.60889 67.0033 5.10667C66.5056 5.60444 65.9011 5.85333 65.19 5.85333C64.4789 5.85333 63.8744 5.60444 63.3767 5.10667C62.9144 4.60889 62.6833 4.00445 62.6833 3.29333ZM75.2861 15.08C75.3573 15.08 75.5884 15.08 75.9795 15.08C76.4061 15.0444 76.8684 15.0089 77.3661 14.9733C78.5039 14.9378 79.3217 14.8844 79.8195 14.8133C80.1395 14.7778 80.2995 14.5822 80.2995 14.2267C80.2995 13.8356 80.2639 13.4267 80.1928 13C80.1217 12.5733 79.9973 12.2 79.8195 11.88C79.4284 11.0978 78.9128 10.7067 78.2728 10.7067C77.6684 10.7067 77.1884 10.8844 76.8328 11.24C76.4773 11.56 76.175 11.9511 75.9261 12.4133C75.4995 13.3378 75.2861 14.2267 75.2861 15.08ZM83.7128 16.04C81.5795 16.2178 78.7706 16.36 75.2861 16.4667C75.2861 18.6356 75.8906 20.2356 77.0995 21.2667C78.0239 22.0133 79.0195 22.3867 80.0861 22.3867C81.1884 22.3867 82.0417 22.1911 82.6461 21.8C83.2506 21.4089 83.7484 21.0178 84.1395 20.6267C84.4239 20.6978 84.5661 20.8933 84.5661 21.2133C84.5661 21.5333 84.495 21.8 84.3528 22.0133C84.2461 22.1911 84.015 22.4756 83.6595 22.8667C83.3039 23.2222 82.8595 23.5778 82.3261 23.9333C80.975 24.8578 79.6773 25.32 78.4328 25.32C77.1884 25.32 76.1217 25.16 75.2328 24.84C74.3439 24.4844 73.5617 23.9867 72.8861 23.3467C71.4284 21.96 70.6995 20.1644 70.6995 17.96C70.6995 15.6844 71.4817 13.6933 73.0461 11.9867C74.7173 10.1733 76.5306 9.26667 78.4861 9.26667C80.5839 9.26667 82.1839 9.88889 83.2861 11.1333C84.2106 12.1289 84.6728 13.2844 84.6728 14.6C84.6728 14.9911 84.5839 15.3289 84.4061 15.6133C84.2284 15.8978 83.9973 16.04 83.7128 16.04ZM90.7586 24.8933C89.3009 24.8933 87.6831 24.9822 85.9053 25.16C85.8342 25.0533 85.7986 24.84 85.7986 24.52C85.7986 24.2 85.8342 23.9689 85.9053 23.8267C86.652 23.8267 87.2031 23.7556 87.5586 23.6133C87.9142 23.4356 88.1275 23.2933 88.1986 23.1867C88.3764 22.76 88.4653 21.6578 88.4653 19.88V15.2933C88.4653 15.0089 88.4298 14.5822 88.3586 14.0133C88.2875 13.4444 88.2164 13.0889 88.1453 12.9467C87.8964 12.4844 87.1498 12.2533 85.9053 12.2533C85.8342 12.2178 85.7986 12.04 85.7986 11.72C85.8342 11.3644 85.8875 11.1867 85.9586 11.1867C87.3098 11.08 88.6253 10.8311 89.9053 10.44C91.1853 10.0133 92.1631 9.64 92.8386 9.32C92.9453 9.35556 93.0698 9.44444 93.212 9.58667C93.3542 9.72889 93.4075 9.83556 93.372 9.90667C93.372 9.97778 93.3542 10.1378 93.3186 10.3867C93.2831 10.6356 93.2475 10.92 93.212 11.24C93.1764 11.5244 93.1409 11.8089 93.1053 12.0933C93.0698 12.3778 93.052 12.5733 93.052 12.68C93.052 12.7511 93.0875 12.8044 93.1586 12.84C93.2298 12.84 93.2653 12.8222 93.2653 12.7867C93.9053 11.72 94.4386 10.9733 94.8653 10.5467C95.7898 9.69333 96.732 9.26667 97.692 9.26667C98.7586 9.26667 99.4875 9.46222 99.8786 9.85333C100.163 10.28 100.305 10.76 100.305 11.2933C100.305 11.7911 100.252 12.2178 100.145 12.5733C100.039 12.8933 99.8786 13.1956 99.6653 13.48C99.2386 14.0844 98.7409 14.3867 98.172 14.3867C97.852 14.3867 97.5675 14.28 97.3186 14.0667C97.1053 13.8533 96.892 13.6578 96.6786 13.48C96.5009 13.3022 96.3053 13.1422 96.092 13C95.9142 12.8222 95.6653 12.7333 95.3453 12.7333C95.0253 12.7333 94.7231 12.8578 94.4386 13.1067C94.1542 13.32 93.9053 13.5867 93.692 13.9067C93.2653 14.5467 93.052 15.1156 93.052 15.6133V19.88C93.052 21.6578 93.1053 22.6889 93.212 22.9733C93.3186 23.2222 93.4609 23.4 93.6386 23.5067C93.8164 23.5778 94.012 23.6489 94.2253 23.72C94.5809 23.7911 94.9542 23.8267 95.3453 23.8267C95.4164 23.9689 95.452 24.2 95.452 24.52C95.452 24.84 95.4164 25.0533 95.3453 25.16C93.5675 24.9822 92.0386 24.8933 90.7586 24.8933Z"/>
</svg>
