<svg width="20" height="20" viewBox="0 0 20 20" fill="none" xmlns="http://www.w3.org/2000/svg">
<g clip-path="url(#clip0_1_396)">
<path d="M8.14998 7.94401C9.99093 7.94401 11.4833 6.45163 11.4833 4.61068C11.4833 2.76973 9.99093 1.27734 8.14998 1.27734C6.30903 1.27734 4.81665 2.76973 4.81665 4.61068C4.81665 6.45163 6.30903 7.94401 8.14998 7.94401Z" fill="#525252"/>
<path d="M9.13331 17.6782C8.94971 17.4966 8.82991 17.2604 8.79185 17.005C8.75379 16.7496 8.79952 16.4888 8.92219 16.2615L9.21664 15.706L8.61108 15.5226C8.36415 15.4454 8.14917 15.2896 7.99877 15.0791C7.84837 14.8685 7.77077 14.6146 7.77775 14.356V13.2171C7.77728 12.9596 7.85967 12.7087 8.01274 12.5016C8.1658 12.2946 8.38143 12.1422 8.62775 12.0671L9.23331 11.8838L8.94442 11.3282C8.82534 11.1041 8.78003 10.8481 8.81494 10.5967C8.84986 10.3453 8.96321 10.1114 9.13886 9.9282C8.71146 9.87217 8.28102 9.84248 7.84997 9.83931C6.57682 9.80934 5.31274 10.0607 4.14788 10.5754C2.98303 11.0901 1.94611 11.8556 1.11108 12.8171V17.1226C1.11108 17.27 1.16962 17.4113 1.2738 17.5155C1.37799 17.6197 1.5193 17.6782 1.66664 17.6782H9.13331Z" fill="#525252"/>
<path d="M18.7222 13.033L17.6111 12.6996C17.5341 12.4253 17.426 12.1606 17.2888 11.9107L17.8444 10.8774C17.8659 10.8391 17.8737 10.7946 17.8667 10.7512C17.8596 10.7078 17.838 10.6681 17.8055 10.6385L17 9.82742C16.9689 9.79722 16.9294 9.77729 16.8866 9.77034C16.8439 9.76338 16.8001 9.76973 16.7611 9.78853L15.7333 10.3441C15.4803 10.2067 15.2141 10.095 14.9388 10.0107L14.6 8.89964C14.585 8.85867 14.5578 8.82332 14.522 8.79845C14.4862 8.77358 14.4436 8.76041 14.4 8.76075H13.2444C13.2011 8.76196 13.1592 8.77647 13.1244 8.80231C13.0896 8.82815 13.0636 8.86407 13.05 8.90519L12.7166 10.0163C12.436 10.098 12.1657 10.2117 11.9111 10.3552L10.9055 9.79964C10.8664 9.77886 10.8218 9.7709 10.7779 9.77688C10.734 9.78286 10.6932 9.80248 10.6611 9.83297L9.8444 10.633C9.81224 10.664 9.79105 10.7046 9.78404 10.7487C9.77702 10.7928 9.78456 10.838 9.80551 10.8774L10.3611 11.8885C10.2122 12.1395 10.0912 12.4058 9.99995 12.683L8.88884 13.0219C8.84681 13.034 8.80993 13.0596 8.78384 13.0947C8.75775 13.1298 8.74389 13.1726 8.7444 13.2163V14.3552C8.74389 14.3989 8.75775 14.4416 8.78384 14.4768C8.80993 14.5119 8.84681 14.5375 8.88884 14.5496L9.99995 14.8885C10.0832 15.1606 10.195 15.4232 10.3333 15.6719L9.77773 16.7274C9.75678 16.7669 9.74924 16.812 9.75626 16.8561C9.76328 16.9003 9.78446 16.9409 9.81662 16.9719L10.6444 17.7774C10.6765 17.8079 10.7174 17.8275 10.7612 17.8335C10.8051 17.8395 10.8497 17.8315 10.8888 17.8107L11.9277 17.2552C12.175 17.3882 12.4357 17.4943 12.7055 17.5719L13.0388 18.7107C13.0528 18.7528 13.0797 18.7893 13.1155 18.8152C13.1514 18.8411 13.1946 18.8551 13.2388 18.8552H14.3777C14.421 18.854 14.4629 18.8395 14.4977 18.8136C14.5325 18.7878 14.5585 18.7519 14.5722 18.7107L14.9055 17.5719C15.1721 17.4953 15.4293 17.3891 15.6722 17.2552L16.7222 17.8107C16.7613 17.8315 16.8059 17.8395 16.8498 17.8335C16.8936 17.8275 16.9345 17.8079 16.9666 17.7774L17.7777 16.9719C17.8082 16.9398 17.8278 16.8989 17.8338 16.855C17.8398 16.8111 17.8318 16.7665 17.8111 16.7274L17.2555 15.683C17.3884 15.4396 17.4946 15.1825 17.5722 14.9163L18.6833 14.5774C18.725 14.564 18.7617 14.5382 18.7885 14.5035C18.8153 14.4688 18.8309 14.4268 18.8333 14.383V13.233C18.8346 13.1927 18.825 13.1528 18.8054 13.1176C18.7859 13.0823 18.7571 13.0531 18.7222 13.033ZM13.8166 15.6552C13.4494 15.6563 13.0901 15.5484 12.7842 15.3452C12.4783 15.142 12.2396 14.8525 12.0984 14.5136C11.9571 14.1746 11.9195 13.8014 11.9905 13.4411C12.0615 13.0807 12.2377 12.7496 12.497 12.4895C12.7563 12.2295 13.0869 12.0522 13.447 11.9802C13.8071 11.9081 14.1805 11.9445 14.5199 12.0848C14.8592 12.2251 15.1494 12.4629 15.3535 12.7682C15.5577 13.0734 15.6666 13.4324 15.6666 13.7996C15.6666 14.2908 15.4719 14.7619 15.1251 15.1098C14.7783 15.4576 14.3078 15.6537 13.8166 15.6552Z" fill="#525252"/>
</g>
<defs>
<clipPath id="clip0_1_396">
<rect width="20" height="20" fill="white"/>
</clipPath>
</defs>
</svg>
