<svg width="22" height="21" viewBox="0 0 22 21" fill="none" xmlns="http://www.w3.org/2000/svg">
<path d="M6 6C8.76142 6 11 4.88071 11 3.5C11 2.11929 8.76142 1 6 1C3.23858 1 1 2.11929 1 3.5C1 4.88071 3.23858 6 6 6Z" stroke="#525252" stroke-width="2" stroke-linecap="round" stroke-linejoin="round"/>
<path d="M1 3.5V7C1 8.3805 3.2385 9.5 6 9.5C8.7615 9.5 11 8.3805 11 7V3.5" stroke="#525252" stroke-width="2" stroke-linecap="round" stroke-linejoin="round"/>
<path d="M1 7V10.5C1 11.8805 3.2385 13 6 13C8.7615 13 11 11.8805 11 10.5V7" stroke="#525252" stroke-width="2" stroke-linecap="round" stroke-linejoin="round"/>
<path d="M1 10.5V14C1 15.3805 3.2385 16.5 6 16.5C8.7615 16.5 11 15.3805 11 14V10.5" stroke="#525252" stroke-width="2" stroke-linecap="round" stroke-linejoin="round"/>
<path d="M1 14V17.5C1 18.8805 3.2385 20 6 20C8.7615 20 11 18.8805 11 17.5V14" stroke="#525252" stroke-width="2" stroke-linecap="round" stroke-linejoin="round"/>
<path d="M16 13C18.7614 13 21 11.8807 21 10.5C21 9.11929 18.7614 8 16 8C13.2386 8 11 9.11929 11 10.5C11 11.8807 13.2386 13 16 13Z" stroke="#525252" stroke-width="2" stroke-linecap="round" stroke-linejoin="round"/>
<path d="M11 10.5V14C11 15.3805 13.2385 16.5 16 16.5C18.7615 16.5 21 15.3805 21 14V10.5" stroke="#525252" stroke-width="2" stroke-linecap="round" stroke-linejoin="round"/>
<path d="M11 14V17.5C11 18.8805 13.2385 20 16 20C18.7615 20 21 18.8805 21 17.5V14" stroke="#525252" stroke-width="2" stroke-linecap="round" stroke-linejoin="round"/>
</svg>
