<svg width="20" height="20" viewBox="0 0 20 20" fill="none" xmlns="http://www.w3.org/2000/svg">
<path d="M16.6667 1.66699H3.33341C2.41675 1.66699 1.66675 2.41699 1.66675 3.33366V13.3337C1.66675 14.2503 2.41675 15.0003 3.33341 15.0003H15.0001L18.3334 18.3337V3.33366C18.3334 2.41699 17.5834 1.66699 16.6667 1.66699ZM14.1667 11.667H5.83341C5.37508 11.667 5.00008 11.292 5.00008 10.8337C5.00008 10.3753 5.37508 10.0003 5.83341 10.0003H14.1667C14.6251 10.0003 15.0001 10.3753 15.0001 10.8337C15.0001 11.292 14.6251 11.667 14.1667 11.667ZM14.1667 9.16699H5.83341C5.37508 9.16699 5.00008 8.79199 5.00008 8.33366C5.00008 7.87533 5.37508 7.50033 5.83341 7.50033H14.1667C14.6251 7.50033 15.0001 7.87533 15.0001 8.33366C15.0001 8.79199 14.6251 9.16699 14.1667 9.16699ZM14.1667 6.66699H5.83341C5.37508 6.66699 5.00008 6.29199 5.00008 5.83366C5.00008 5.37533 5.37508 5.00033 5.83341 5.00033H14.1667C14.6251 5.00033 15.0001 5.37533 15.0001 5.83366C15.0001 6.29199 14.6251 6.66699 14.1667 6.66699Z" fill="#525252"/>
</svg>
