<svg width="20" height="20" viewBox="0 0 20 20" fill="none" xmlns="http://www.w3.org/2000/svg">
<path d="M4.70833 8.35419L6.33333 9.04169C6.52778 8.65281 6.72917 8.2778 6.9375 7.91669C7.14583 7.55558 7.375 7.19447 7.625 6.83336L6.45833 6.60419L4.70833 8.35419ZM7.66667 10.0834L10.0417 12.4375C10.625 12.2153 11.25 11.875 11.9167 11.4167C12.5833 10.9584 13.2083 10.4375 13.7917 9.85419C14.7639 8.88197 15.5244 7.80225 16.0733 6.61503C16.6217 5.42725 16.8611 4.33336 16.7917 3.33336C15.7917 3.26392 14.6944 3.50336 13.5 4.05169C12.3056 4.60058 11.2222 5.36114 10.25 6.33336C9.66667 6.91669 9.14583 7.54169 8.6875 8.20836C8.22917 8.87503 7.88889 9.50003 7.66667 10.0834ZM11.375 8.72919C11.0556 8.40975 10.8958 8.01725 10.8958 7.55169C10.8958 7.08669 11.0556 6.69447 11.375 6.37503C11.6944 6.05558 12.0903 5.89586 12.5625 5.89586C13.0347 5.89586 13.4306 6.05558 13.75 6.37503C14.0694 6.69447 14.2292 7.08669 14.2292 7.55169C14.2292 8.01725 14.0694 8.40975 13.75 8.72919C13.4306 9.04864 13.0347 9.20836 12.5625 9.20836C12.0903 9.20836 11.6944 9.04864 11.375 8.72919ZM11.7708 15.4167L13.5208 13.6667L13.2917 12.5C12.9306 12.75 12.5694 12.9756 12.2083 13.1767C11.8472 13.3784 11.4722 13.5764 11.0833 13.7709L11.7708 15.4167ZM18.2917 1.81253C18.5556 3.49308 18.3925 5.12836 17.8025 6.71836C17.2119 8.30892 16.1944 9.82642 14.75 11.2709L15.1667 13.3334C15.2222 13.6111 15.2083 13.882 15.125 14.1459C15.0417 14.4097 14.9028 14.6389 14.7083 14.8334L11.2083 18.3334L9.45833 14.2292L5.89583 10.6667L1.79167 8.91669L5.27083 5.41669C5.46528 5.22225 5.69805 5.08336 5.96917 5.00003C6.23972 4.91669 6.51389 4.9028 6.79166 4.95836L8.85417 5.37503C10.2986 3.93058 11.8125 2.90975 13.3958 2.31253C14.9792 1.7153 16.6111 1.54864 18.2917 1.81253ZM3.27083 13.3125C3.75694 12.8264 4.35055 12.5797 5.05167 12.5725C5.75333 12.5659 6.34722 12.8056 6.83333 13.2917C7.31944 13.7778 7.55889 14.3714 7.55167 15.0725C7.545 15.7742 7.29861 16.3681 6.8125 16.8542C6.46528 17.2014 5.88555 17.5 5.07333 17.75C4.26055 18 3.13889 18.2222 1.70833 18.4167C1.90278 16.9861 2.125 15.8645 2.375 15.0517C2.625 14.2395 2.92361 13.6597 3.27083 13.3125ZM4.45833 14.4792C4.31944 14.6181 4.18055 14.8717 4.04167 15.24C3.90278 15.6078 3.80555 15.9792 3.75 16.3542C4.125 16.2986 4.49667 16.205 4.865 16.0734C5.23278 15.9411 5.48611 15.8056 5.625 15.6667C5.79167 15.5 5.88194 15.2986 5.89583 15.0625C5.90972 14.8264 5.83333 14.625 5.66667 14.4584C5.5 14.2917 5.29861 14.2117 5.0625 14.2184C4.82639 14.2256 4.625 14.3125 4.45833 14.4792Z" fill="#525252"/>
</svg>
